<svg width="49" height="45" viewBox="0 0 49 45" fill="none" xmlns="http://www.w3.org/2000/svg">
<path d="M12.5 42C9.83333 34.6667 4.4 19.8 4 19L25 4L45.5 19L37 42H12.5Z" stroke="#EE6D58" stroke-width="5"/>
<path d="M18 22.5L24.5 18L30.5 23L28.5 29.5H20L18 22.5Z" stroke="#EE6D58" stroke-width="4"/>
<path d="M23.4616 23.0725C22.7498 24.0307 21.5566 25.2455 21.5359 26.5125C21.5138 27.8615 22.6062 28.2357 23.7908 28.3724C25.0921 28.5225 26.8435 28.4336 27.4283 27.0392C27.8533 26.0256 27.5985 24.4303 26.8357 23.6321C26.2857 23.0565 25.9825 22.9244 25.2392 22.9244C24.7998 22.9244 24.738 23.4871 24.6137 23.8461C24.3101 24.7234 24.2659 26.0352 25.3873 26.0352C25.9469 26.0352 26.0368 24.3757 25.914 23.9613C25.6732 23.1485 25.0329 21.7958 24.1693 21.476C23.7162 21.3081 23.3868 21.293 23.1653 21.8052C22.9201 22.3722 23.0202 23.148 23.2476 23.7062C23.4072 24.0978 23.8766 24.239 24.1693 24.5209C25.4106 25.7162 25.4189 22.825 24.7948 22.5129C24.3367 22.2839 23.5382 22.8939 23.1983 23.1054C22.1525 23.7561 21.6065 24.6098 21.1738 25.7225C20.7208 26.8873 22.2491 27.9612 23.2312 28.3148C24.0253 28.6007 24.4985 28.3354 24.4985 27.5C24.4985 26.1175 23.7254 24.79 22.8691 23.7391C22.2187 22.941 21.5174 22.2389 20.5812 21.8134C19.8142 21.4647 20.5037 23.0262 20.5812 23.3029C20.6903 23.6923 20.9843 25.032 21.4618 25.1382C22.114 25.2831 21.8318 24.8501 21.3219 24.8501C20.9632 24.8501 20.4823 24.7596 20.1368 24.8583C19.6411 25 21.285 25.7037 21.47 25.7389C22.2484 25.8872 23.1277 26.1075 23.6756 25.3603C24.031 24.8756 24.2111 24.327 23.8319 23.8214C23.5455 23.4395 23.075 23.5169 22.6551 23.5169C22.0314 23.5169 21.9736 23.7338 21.4618 23.9613C20.2002 24.522 21.896 26.6277 22.8691 26.6277" stroke="#EE6D58" stroke-width="3" stroke-linecap="round"/>
</svg>
